<?xml version="1.0" standalone="no"?>
<!DOCTYPE svg PUBLIC "-//W3C//DTD SVG 20010904//EN"
 "http://www.w3.org/TR/2001/REC-SVG-20010904/DTD/svg10.dtd">
<svg version="1.0" xmlns="http://www.w3.org/2000/svg"
 width="840.000000pt" height="862.000000pt" viewBox="0 0 840.000000 862.000000"
 preserveAspectRatio="xMidYMid meet">

<g transform="translate(0.000000,862.000000) scale(0.100000,-0.100000)"
fill="#1b67e2" stroke="none">
<path d="M3840 8199 c-123 -16 -275 -51 -407 -94 -349 -115 -584 -290 -692
-515 l-36 -75 0 -150 c1 -133 3 -156 23 -204 43 -102 143 -226 227 -281 83
-55 185 12 185 121 0 44 -5 53 -56 111 -89 101 -108 146 -109 253 0 80 3 95
26 135 56 95 205 214 354 284 242 114 513 162 874 153 288 -6 456 -38 686
-128 284 -110 445 -270 445 -439 0 -77 -20 -125 -83 -208 -74 -96 -81 -124
-50 -189 33 -71 115 -93 188 -49 49 30 123 127 172 226 36 72 38 80 41 192 3
98 1 129 -17 185 -105 344 -583 619 -1171 672 -133 13 -505 12 -600 0z"/>
<path d="M4130 7293 c-266 -25 -461 -115 -632 -290 -194 -199 -289 -482 -258
-768 30 -285 164 -514 394 -677 177 -124 326 -168 574 -168 186 0 347 45 480
134 195 129 343 318 411 522 169 505 -139 1071 -660 1214 -61 16 -251 43 -269
38 -3 -1 -21 -3 -40 -5z m222 -292 c429 -110 638 -566 446 -971 -57 -120 -176
-239 -298 -298 -300 -146 -589 -93 -817 152 -125 134 -178 274 -177 466 2 198
60 328 217 484 93 92 168 137 279 166 100 26 250 26 350 1z"/>
<path d="M2349 5771 c-138 -26 -320 -101 -442 -182 -86 -58 -231 -208 -298
-309 -180 -270 -250 -502 -409 -1360 -88 -473 -148 -741 -205 -919 -140 -432
-343 -730 -631 -928 -109 -75 -164 -132 -164 -171 0 -69 121 -189 259 -257
249 -123 589 -102 905 57 280 141 518 380 661 664 61 123 72 173 48 221 -27
55 -77 86 -132 80 -58 -6 -77 -28 -152 -167 -104 -196 -228 -339 -397 -460
-255 -182 -566 -250 -777 -170 l-27 10 148 153 c168 172 256 290 343 458 162
312 263 676 401 1446 103 576 166 821 265 1030 65 138 123 219 228 320 161
154 308 213 529 213 66 0 140 -5 166 -11 88 -21 223 -95 317 -174 170 -143
204 -165 246 -165 31 0 46 8 80 40 41 38 41 41 37 94 -6 67 -38 111 -166 223
-148 128 -310 214 -472 249 -80 17 -299 26 -361 15z"/>
<path d="M5705 5765 c-276 -61 -655 -345 -659 -495 -1 -37 4 -46 41 -81 34
-31 50 -39 80 -39 47 0 74 17 185 113 212 184 344 242 548 241 132 -1 219 -22
335 -79 222 -110 382 -315 489 -624 66 -189 104 -360 206 -908 141 -765 218
-1048 372 -1358 112 -226 243 -404 407 -553 50 -46 91 -88 91 -93 0 -16 -59
-36 -143 -49 -248 -40 -583 104 -825 354 -101 104 -148 170 -222 311 -64 122
-105 165 -156 165 -46 0 -97 -31 -125 -76 -29 -48 -21 -94 41 -219 220 -442
659 -759 1117 -805 262 -27 489 50 646 219 103 112 90 153 -85 276 -295 209
-483 473 -624 878 -70 203 -123 433 -223 983 -149 812 -229 1077 -407 1352
-61 94 -190 232 -278 299 -81 60 -243 137 -341 162 -153 39 -359 51 -470 26z"/>
<path d="M4035 5249 c-94 -12 -232 -52 -336 -98 -378 -166 -676 -537 -790
-984 -47 -183 -51 -254 -59 -1012 -7 -669 -9 -728 -29 -833 -40 -218 -92 -392
-167 -565 -77 -179 -118 -239 -271 -400 -149 -157 -179 -201 -168 -245 10 -42
71 -118 144 -179 219 -187 576 -359 929 -448 303 -76 454 -89 1013 -82 366 4
427 7 529 26 266 49 501 118 705 207 325 142 625 383 625 501 0 48 -24 88
-100 168 -239 250 -415 628 -506 1085 -37 186 -44 315 -44 870 0 278 -5 555
-10 616 -65 734 -555 1295 -1200 1374 -96 11 -165 11 -265 -1z m405 -304 c114
-37 199 -81 295 -152 194 -145 353 -374 434 -626 59 -184 61 -211 71 -852 5
-324 11 -646 14 -715 13 -287 118 -677 261 -968 63 -129 113 -211 258 -421 20
-29 37 -61 37 -70 0 -23 -38 -57 -132 -120 -378 -251 -931 -376 -1593 -358
-427 12 -761 73 -1068 196 -140 56 -349 171 -436 240 l-24 19 67 78 c233 271
380 609 456 1048 40 232 58 712 40 1017 -14 216 -5 422 30 690 37 290 145 521
338 721 124 128 260 217 413 267 108 35 147 40 304 37 131 -3 160 -7 235 -31z"/>
<path d="M4458 4434 c-68 -16 -163 -62 -237 -115 l-53 -38 -97 49 c-54 26
-124 56 -156 65 -79 23 -202 17 -267 -14 -144 -69 -258 -251 -258 -411 0 -197
196 -502 500 -778 243 -221 282 -232 428 -122 161 121 377 345 481 498 105
155 167 328 157 437 -21 217 -162 395 -344 434 -65 14 -82 13 -154 -5z m142
-286 c19 -13 44 -43 58 -68 20 -38 23 -55 19 -115 -5 -88 -37 -159 -120 -263
-66 -83 -341 -368 -370 -384 -22 -12 -100 57 -275 245 -184 197 -270 350 -243
436 28 92 89 146 154 136 49 -7 122 -44 210 -106 129 -91 157 -88 300 27 145
117 201 136 267 92z"/>
<path d="M5942 2293 c-100 -49 -107 -126 -25 -294 60 -120 127 -207 221 -284
154 -128 455 -239 556 -205 69 22 103 109 73 182 -12 29 -25 39 -78 60 -35 15
-94 36 -132 47 -129 40 -196 79 -282 166 -63 63 -92 103 -134 183 -57 107
-106 162 -144 162 -12 0 -37 -8 -55 -17z"/>
<path d="M2348 2273 c-14 -16 -46 -68 -72 -118 -108 -211 -228 -303 -506 -387
-98 -29 -130 -59 -130 -123 0 -50 10 -77 43 -112 18 -20 31 -23 91 -23 95 0
199 29 321 91 185 93 303 205 391 371 38 74 74 170 74 201 0 10 -7 34 -16 53
-35 74 -146 100 -196 47z"/>
</g>
</svg>
